name analog
datacolumns 19
datarows 77
range 0.47300000000000003 0.511
endheader
time	ground_force_vx	ground_force_vy	ground_force_vz	ground_force_px	ground_force_py	ground_force_pz	l_ground_force_vx	l_ground_force_vy	l_ground_force_vz	l_ground_force_px	l_ground_force_py	l_ground_force_pz	ground_torque_x	ground_torque_y	ground_torque_z	l_ground_torque_x	l_ground_torque_y	l_ground_torque_z
0.47300000000000003	-0.0	-0.0	-0.0	4.669529914855957	2.327152729034424	-783.7449951171875	-0.0	-0.0	-0.0	-0.0	-0.0	-0.0	-0.0	-0.0	-0.0	-0.0	-0.0	-0.0
0.47350000000000003	-0.0	-0.0	-0.0	5.054634094238281	2.555385112762451	-782.056884765625	-0.0	-0.0	-0.0	-0.0	-0.0	-0.0	-0.0	-0.0	-0.0	-0.0	-0.0	-0.0
0.47400000000000003	-0.0	-0.0	-0.0	5.838059425354004	2.238095283508301	-779.8992309570312	-0.0	-0.0	-0.0	-0.0	-0.0	-0.0	-0.0	-0.0	-0.0	-0.0	-0.0	-0.0
0.47450000000000003	-0.0	-0.0	-0.0	5.897771835327148	1.742823600769043	-778.52587890625	-0.0	-0.0	-0.0	-0.0	-0.0	-0.0	-0.0	-0.0	-0.0	-0.0	-0.0	-0.0
0.47500000000000003	-0.0	-0.0	-0.0	5.531051635742188	1.5449153184890747	-775.5831298828125	-0.0	-0.0	-0.0	-0.0	-0.0	-0.0	-0.0	-0.0	-0.0	-0.0	-0.0	-0.0
0.47550000000000003	-0.0	-0.0	-0.0	5.352630615234375	0.396288514137268	-774.3280029296875	-0.0	-0.0	-0.0	-0.0	-0.0	-0.0	-0.0	-0.0	-0.0	-0.0	-0.0	-0.0
0.47600000000000003	-0.0	-0.0	-0.0	4.718170166015625	0.4749135673046112	-771.6217651367188	-0.0	-0.0	-0.0	-0.0	-0.0	-0.0	-0.0	-0.0	-0.0	-0.0	-0.0	-0.0
0.47650000000000003	-0.0	-0.0	-0.0	4.51063346862793	0.713043212890625	-771.42431640625	-0.0	-0.0	-0.0	-0.0	-0.0	-0.0	-0.0	-0.0	-0.0	-0.0	-0.0	-0.0
0.47700000000000004	-0.0	-0.0	-0.0	4.549736022949219	1.0394178628921509	-771.9717407226562	-0.0	-0.0	-0.0	-0.0	-0.0	-0.0	-0.0	-0.0	-0.0	-0.0	-0.0	-0.0
0.47750000000000004	-0.0	-0.0	-0.0	4.172705173492432	0.6037420034408569	-774.5635375976562	-0.0	-0.0	-0.0	-0.0	-0.0	-0.0	-0.0	-0.0	-0.0	-0.0	-0.0	-0.0
0.47800000000000004	-0.0	-0.0	-0.0	3.6880176067352295	0.4254123568534851	-774.0979614257812	-0.0	-0.0	-0.0	-0.0	-0.0	-0.0	-0.0	-0.0	-0.0	-0.0	-0.0	-0.0
0.47850000000000004	-0.0	-0.0	-0.0	3.736675977706909	0.1500678360462188	-772.9991455078125	-0.0	-0.0	-0.0	-0.0	-0.0	-0.0	-0.0	-0.0	-0.0	-0.0	-0.0	-0.0
0.47900000000000004	-0.0	-0.0	-0.0	3.124973773956299	0.1095157116651535	-773.9788208007812	-0.0	-0.0	-0.0	-0.0	-0.0	-0.0	-0.0	-0.0	-0.0	-0.0	-0.0	-0.0
0.47950000000000004	-0.0	-0.0	-0.0	3.479209899902344	-1.1484681367874146	-780.0123291015625	-0.0	-0.0	-0.0	-0.0	-0.0	-0.0	-0.0	-0.0	-0.0	-0.0	-0.0	-0.0
0.48	-0.0	-0.0	-0.0	3.637085437774658	-3.088773727416992	-779.318359375	-0.0	-0.0	-0.0	-0.0	-0.0	-0.0	-0.0	-0.0	-0.0	-0.0	-0.0	-0.0
0.4805	-0.0	-0.0	-0.0	4.103683471679688	-4.27825927734375	-781.0707397460938	-0.0	-0.0	-0.0	-0.0	-0.0	-0.0	-0.0	-0.0	-0.0	-0.0	-0.0	-0.0
0.481	-0.0	-0.0	-0.0	4.67643928527832	-5.132104396820068	-777.1187133789062	-0.0	-0.0	-0.0	-0.0	-0.0	-0.0	-0.0	-0.0	-0.0	-0.0	-0.0	-0.0
0.4815	-0.0	-0.0	-0.0	5.143069267272949	-5.783105373382568	-773.833984375	-0.0	-0.0	-0.0	-0.0	-0.0	-0.0	-0.0	-0.0	-0.0	-0.0	-0.0	-0.0
0.482	-0.0	-0.0	-0.0	4.964539051055908	-5.395326137542725	-773.9229736328125	-0.0	-0.0	-0.0	-0.0	-0.0	-0.0	-0.0	-0.0	-0.0	-0.0	-0.0	-0.0
0.4825	-0.0	-0.0	-0.0	4.990182399749756	-4.262217044830322	-767.2722778320312	-0.0	-0.0	-0.0	-0.0	-0.0	-0.0	-0.0	-0.0	-0.0	-0.0	-0.0	-0.0
0.483	-0.0	-0.0	-0.0	5.263420104980469	-3.318779468536377	-765.735595703125	-0.0	-0.0	-0.0	-0.0	-0.0	-0.0	-0.0	-0.0	-0.0	-0.0	-0.0	-0.0
0.4835	-0.0	-0.0	-0.0	4.492094993591309	-2.820631742477417	-763.2001342773438	-0.0	-0.0	-0.0	-0.0	-0.0	-0.0	-0.0	-0.0	-0.0	-0.0	-0.0	-0.0
0.484	-0.0	-0.0	-0.0	2.986185312271118	-2.7946927547454834	-762.7245483398438	-0.0	-0.0	-0.0	-0.0	-0.0	-0.0	-0.0	-0.0	-0.0	-0.0	-0.0	-0.0
0.4845	-0.0	-0.0	-0.0	1.5907371044158936	-3.3869552612304688	-761.4978637695312	-0.0	-0.0	-0.0	-0.0	-0.0	-0.0	-0.0	-0.0	-0.0	-0.0	-0.0	-0.0
0.485	-0.0	-0.0	-0.0	0.2103125602006912	-4.927576541900635	-765.2988891601562	-0.0	-0.0	-0.0	-0.0	-0.0	-0.0	-0.0	-0.0	-0.0	-0.0	-0.0	-0.0
0.4855	-0.0	-0.0	-0.0	-0.3675090074539184	-6.342787265777588	-767.897705078125	-0.0	-0.0	-0.0	-0.0	-0.0	-0.0	-0.0	-0.0	-0.0	-0.0	-0.0	-0.0
0.486	-0.0	-0.0	-0.0	-1.1133315563201904	-7.194582462310791	-769.5791015625	-0.0	-0.0	-0.0	-0.0	-0.0	-0.0	-0.0	-0.0	-0.0	-0.0	-0.0	-0.0
0.4865	-0.0	-0.0	-0.0	-1.3381576538085938	-8.35680103302002	-773.689697265625	-0.0	-0.0	-0.0	-0.0	-0.0	-0.0	-0.0	-0.0	-0.0	-0.0	-0.0	-0.0
0.487	-0.0	-0.0	-0.0	-2.3224897384643555	-8.5565185546875	-775.0593872070312	-0.0	-0.0	-0.0	-0.0	-0.0	-0.0	-0.0	-0.0	-0.0	-0.0	-0.0	-0.0
0.4875	-0.0	-0.0	-0.0	-2.184287071228028	-8.118927001953125	-776.8674926757812	-0.0	-0.0	-0.0	-0.0	-0.0	-0.0	-0.0	-0.0	-0.0	-0.0	-0.0	-0.0
0.488	-0.0	-0.0	-0.0	-2.787216186523437	-7.576084136962891	-777.6925048828125	-0.0	-0.0	-0.0	-0.0	-0.0	-0.0	-0.0	-0.0	-0.0	-0.0	-0.0	-0.0
0.4885	-0.0	-0.0	-0.0	-2.4630918502807617	-7.263049602508545	-779.4165649414062	-0.0	-0.0	-0.0	-0.0	-0.0	-0.0	-0.0	-0.0	-0.0	-0.0	-0.0	-0.0
0.489	-0.0	-0.0	-0.0	-3.0222413539886475	-5.846126556396484	-781.37109375	-0.0	-0.0	-0.0	-0.0	-0.0	-0.0	-0.0	-0.0	-0.0	-0.0	-0.0	-0.0
0.4895	-0.0	-0.0	-0.0	-3.2225308418273926	-5.515142440795898	-780.4409790039062	-0.0	-0.0	-0.0	-0.0	-0.0	-0.0	-0.0	-0.0	-0.0	-0.0	-0.0	-0.0
0.49	-0.0	-0.0	-0.0	-3.837351083755493	-5.203798294067383	-775.3169555664062	-0.0	-0.0	-0.0	-0.0	-0.0	-0.0	-0.0	-0.0	-0.0	-0.0	-0.0	-0.0
0.4905	-0.0	-0.0	-0.0	-3.388972759246826	-5.169563293457031	-774.5671997070312	-0.0	-0.0	-0.0	-0.0	-0.0	-0.0	-0.0	-0.0	-0.0	-0.0	-0.0	-0.0
0.491	-0.0	-0.0	-0.0	-3.546302318572998	-6.362143039703369	-771.7857055664062	-0.0	-0.0	-0.0	-0.0	-0.0	-0.0	-0.0	-0.0	-0.0	-0.0	-0.0	-0.0
0.4915	-0.0	-0.0	-0.0	-4.271454811096191	-7.698916912078857	-771.301025390625	-0.0	-0.0	-0.0	-0.0	-0.0	-0.0	-0.0	-0.0	-0.0	-0.0	-0.0	-0.0
0.492	-0.0	-0.0	-0.0	-4.627814292907715	-8.389379501342773	-770.9036865234375	-0.0	-0.0	-0.0	-0.0	-0.0	-0.0	-0.0	-0.0	-0.0	-0.0	-0.0	-0.0
0.4925	-0.0	-0.0	-0.0	-5.687139987945557	-8.924196243286133	-771.6539306640625	-0.0	-0.0	-0.0	-0.0	-0.0	-0.0	-0.0	-0.0	-0.0	-0.0	-0.0	-0.0
0.493	-0.0	-0.0	-0.0	-6.8804121017456055	-10.194031715393066	-773.0221557617188	-0.0	-0.0	-0.0	-0.0	-0.0	-0.0	-0.0	-0.0	-0.0	-0.0	-0.0	-0.0
0.4935	-0.0	-0.0	-0.0	-7.6271467208862305	-11.464134216308594	-776.4230346679688	-0.0	-0.0	-0.0	-0.0	-0.0	-0.0	-0.0	-0.0	-0.0	-0.0	-0.0	-0.0
0.494	-0.0	-0.0	-0.0	-8.140704154968262	-11.66481876373291	-780.876953125	-0.0	-0.0	-0.0	-0.0	-0.0	-0.0	-0.0	-0.0	-0.0	-0.0	-0.0	-0.0
0.4945	-0.0	-0.0	-0.0	-8.942399978637695	-12.410455703735352	-784.6763305664062	-0.0	-0.0	-0.0	-0.0	-0.0	-0.0	-0.0	-0.0	-0.0	-0.0	-0.0	-0.0
0.495	-0.0	-0.0	-0.0	-10.157089233398438	-11.844568252563477	-787.983154296875	-0.0	-0.0	-0.0	-0.0	-0.0	-0.0	-0.0	-0.0	-0.0	-0.0	-0.0	-0.0
0.4955	-0.0	-0.0	-0.0	-10.382562637329102	-11.822067260742188	-790.1914672851562	-0.0	-0.0	-0.0	-0.0	-0.0	-0.0	-0.0	-0.0	-0.0	-0.0	-0.0	-0.0
0.496	-0.0	-0.0	-0.0	-11.68657684326172	-12.11032772064209	-792.7532958984375	-0.0	-0.0	-0.0	-0.0	-0.0	-0.0	-0.0	-0.0	-0.0	-0.0	-0.0	-0.0
0.4965	-0.0	-0.0	-0.0	-12.198931694030762	-12.05549144744873	-790.9512939453125	-0.0	-0.0	-0.0	-0.0	-0.0	-0.0	-0.0	-0.0	-0.0	-0.0	-0.0	-0.0
0.497	-0.0	-0.0	-0.0	-12.075186729431152	-12.535646438598633	-792.1826171875	-0.0	-0.0	-0.0	-0.0	-0.0	-0.0	-0.0	-0.0	-0.0	-0.0	-0.0	-0.0
0.4975	-0.0	-0.0	-0.0	-11.55126667022705	-12.935422897338867	-789.5396728515625	-0.0	-0.0	-0.0	-0.0	-0.0	-0.0	-0.0	-0.0	-0.0	-0.0	-0.0	-0.0
0.498	-0.0	-0.0	-0.0	-10.794471740722656	-11.780041694641112	-787.898681640625	-0.0	-0.0	-0.0	-0.0	-0.0	-0.0	-0.0	-0.0	-0.0	-0.0	-0.0	-0.0
0.4985	-0.0	-0.0	-0.0	-10.437629699707031	-11.354315757751465	-785.51806640625	-0.0	-0.0	-0.0	-0.0	-0.0	-0.0	-0.0	-0.0	-0.0	-0.0	-0.0	-0.0
0.499	-0.0	-0.0	-0.0	-10.169998168945312	-10.63359832763672	-783.399169921875	-0.0	-0.0	-0.0	-0.0	-0.0	-0.0	-0.0	-0.0	-0.0	-0.0	-0.0	-0.0
0.4995	-0.0	-0.0	-0.0	-9.22368621826172	-10.323339462280272	-781.7556762695312	-0.0	-0.0	-0.0	-0.0	-0.0	-0.0	-0.0	-0.0	-0.0	-0.0	-0.0	-0.0
0.5	-0.0	-0.0	-0.0	-9.03367042541504	-9.555919647216797	-776.8919067382812	-0.0	-0.0	-0.0	-0.0	-0.0	-0.0	-0.0	-0.0	-0.0	-0.0	-0.0	-0.0
0.5005000000000001	-0.0	-0.0	-0.0	-9.1769437789917	-8.87082290649414	-778.864013671875	-0.0	-0.0	-0.0	-0.0	-0.0	-0.0	-0.0	-0.0	-0.0	-0.0	-0.0	-0.0
0.501	-0.0	-0.0	-0.0	-9.064146041870115	-8.675955772399902	-779.9879760742188	-0.0	-0.0	-0.0	-0.0	-0.0	-0.0	-0.0	-0.0	-0.0	-0.0	-0.0	-0.0
0.5015000000000001	-0.0	-0.0	-0.0	-9.129623413085938	-8.324530601501465	-780.5277099609375	-0.0	-0.0	-0.0	-0.0	-0.0	-0.0	-0.0	-0.0	-0.0	-0.0	-0.0	-0.0
0.502	-0.0	-0.0	-0.0	-8.576055526733398	-8.366422653198242	-785.0721435546875	-0.0	-0.0	-0.0	-0.0	-0.0	-0.0	-0.0	-0.0	-0.0	-0.0	-0.0	-0.0
0.5025000000000001	-0.0	-0.0	-0.0	-8.504796028137207	-7.980093955993652	-786.4376220703125	-0.0	-0.0	-0.0	-0.0	-0.0	-0.0	-0.0	-0.0	-0.0	-0.0	-0.0	-0.0
0.503	-0.0	-0.0	-0.0	-8.255043029785156	-8.390166282653809	-788.9568481445312	-0.0	-0.0	-0.0	-0.0	-0.0	-0.0	-0.0	-0.0	-0.0	-0.0	-0.0	-0.0
0.5035000000000001	-0.0	-0.0	-0.0	-8.082295417785645	-8.5565185546875	-791.123046875	-0.0	-0.0	-0.0	-0.0	-0.0	-0.0	-0.0	-0.0	-0.0	-0.0	-0.0	-0.0
0.504	-0.0	-0.0	-0.0	-7.124850749969482	-7.814241409301758	-792.0193481445312	-0.0	-0.0	-0.0	-0.0	-0.0	-0.0	-0.0	-0.0	-0.0	-0.0	-0.0	-0.0
0.5045000000000001	-0.0	-0.0	-0.0	-6.459236145019531	-7.272645950317383	-793.289794921875	-0.0	-0.0	-0.0	-0.0	-0.0	-0.0	-0.0	-0.0	-0.0	-0.0	-0.0	-0.0
0.505	-0.0	-0.0	-0.0	-6.054253578186035	-6.234348297119141	-795.2179565429688	-0.0	-0.0	-0.0	-0.0	-0.0	-0.0	-0.0	-0.0	-0.0	-0.0	-0.0	-0.0
0.5055000000000001	-0.0	-0.0	-0.0	-5.70947265625	-5.027562141418457	-794.8164672851562	-0.0	-0.0	-0.0	-0.0	-0.0	-0.0	-0.0	-0.0	-0.0	-0.0	-0.0	-0.0
0.506	-0.0	-0.0	-0.0	-5.6323957443237305	-4.505011558532715	-792.4877319335938	-0.0	-0.0	-0.0	-0.0	-0.0	-0.0	-0.0	-0.0	-0.0	-0.0	-0.0	-0.0
0.5065000000000001	-0.0	-0.0	-0.0	-5.162041664123535	-3.796136379241944	-789.7103271484375	-0.0	-0.0	-0.0	-0.0	-0.0	-0.0	-0.0	-0.0	-0.0	-0.0	-0.0	-0.0
0.507	-0.0	-0.0	-0.0	-4.736578464508057	-2.5688092708587646	-788.1526489257812	-0.0	-0.0	-0.0	-0.0	-0.0	-0.0	-0.0	-0.0	-0.0	-0.0	-0.0	-0.0
0.5075000000000001	-0.0	-0.0	-0.0	-5.072758674621582	-1.450545310974121	-785.8878173828125	-0.0	-0.0	-0.0	-0.0	-0.0	-0.0	-0.0	-0.0	-0.0	-0.0	-0.0	-0.0
0.508	-0.0	-0.0	-0.0	-5.211040019989014	-0.3777838349342346	-786.7034301757812	-0.0	-0.0	-0.0	-0.0	-0.0	-0.0	-0.0	-0.0	-0.0	-0.0	-0.0	-0.0
0.5085000000000001	-0.0	-0.0	-0.0	-4.749748229980469	0.7929019927978516	-785.9227905273438	-0.0	-0.0	-0.0	-0.0	-0.0	-0.0	-0.0	-0.0	-0.0	-0.0	-0.0	-0.0
0.509	-0.0	-0.0	-0.0	-5.201681137084961	1.475433111190796	-787.2979736328125	-0.0	-0.0	-0.0	-0.0	-0.0	-0.0	-0.0	-0.0	-0.0	-0.0	-0.0	-0.0
0.5095000000000001	-0.0	-0.0	-0.0	-5.340246200561523	2.40652084350586	-787.4932250976562	-0.0	-0.0	-0.0	-0.0	-0.0	-0.0	-0.0	-0.0	-0.0	-0.0	-0.0	-0.0
0.51	-0.0	-0.0	-0.0	-5.171929836273193	2.418928384780884	-789.3080444335938	-0.0	-0.0	-0.0	-0.0	-0.0	-0.0	-0.0	-0.0	-0.0	-0.0	-0.0	-0.0
0.5105000000000001	-0.0	-0.0	-0.0	-4.715702056884766	2.7775092124938965	-792.1826171875	-0.0	-0.0	-0.0	-0.0	-0.0	-0.0	-0.0	-0.0	-0.0	-0.0	-0.0	-0.0
0.511	-0.0	-0.0	-0.0	-4.0127034187316895	3.0946033000946045	-794.5065307617188	-0.0	-0.0	-0.0	-0.0	-0.0	-0.0	-0.0	-0.0	-0.0	-0.0	-0.0	-0.0
